<mxfile host="app.diagrams.net" modified="2023-05-02T12:31:51.577Z" agent="Mozilla/5.0 (Macintosh; Intel Mac OS X 10_15_7) AppleWebKit/537.36 (KHTML, like Gecko) Chrome/110.0.0.0 Safari/537.36" version="21.2.3" etag="AcEE5gT_ltPXQxVbtJOh" type="github">
  <diagram name="第 1 页" id="UTtMAyzdfrZXywfXTGYi">
    <mxGraphModel>
      <root>
        <mxCell id="0" />
        <mxCell id="1" parent="0" />
      </root>
    </mxGraphModel>
  </diagram>
</mxfile>
